<svg width="16" height="14" viewBox="0 0 16 14" fill="none" xmlns="http://www.w3.org/2000/svg">
<path d="M15.5206 2.89249H9.88267V0.680051C9.88267 0.415312 9.66804 0.200684 9.4033 0.200684H6.24379C5.97905 0.200684 5.76442 0.415312 5.76442 0.680051V2.89249H0.479367C0.214629 2.89249 0 3.10712 0 3.37186V13.32C0 13.5847 0.214629 13.7994 0.479367 13.7994H15.5206C15.7854 13.7994 16 13.5847 16 13.32V3.37186C16 3.10712 15.7854 2.89249 15.5206 2.89249ZM8.92393 1.15942V3.96755C8.92393 4.57322 8.43124 5.06786 7.82359 5.06786C7.21691 5.06786 6.72332 4.57424 6.72332 3.96755C6.72332 3.82374 6.72319 3.38144 6.72319 1.15942H8.92393ZM15.0413 12.8406H0.958735V3.85123H5.76442C5.76442 5.22397 6.77205 6.02659 7.82356 6.02659H7.82363C8.87529 6.02659 9.8827 5.22551 9.8827 3.85123H15.0413V12.8406Z" fill="#2D2D2D"/>
<path d="M8.85318 7.07312C8.85318 7.33786 9.06781 7.55248 9.33255 7.55248H13.3565C13.6213 7.55248 13.8359 7.33786 13.8359 7.07312C13.8359 6.80838 13.6213 6.59375 13.3565 6.59375H9.33255C9.06781 6.59375 8.85318 6.80835 8.85318 7.07312ZM13.3565 8.34596H9.33255C9.06781 8.34596 8.85318 8.56059 8.85318 8.82533C8.85318 9.09007 9.06781 9.3047 9.33255 9.3047H13.3565C13.6213 9.3047 13.8359 9.09007 13.8359 8.82533C13.8359 8.56059 13.6213 8.34596 13.3565 8.34596ZM13.3565 10.0982H9.33255C9.06781 10.0982 8.85318 10.3128 8.85318 10.5776C8.85318 10.8423 9.06781 11.0569 9.33255 11.0569H13.3565C13.6213 11.0569 13.8359 10.8423 13.8359 10.5776C13.8359 10.3128 13.6213 10.0982 13.3565 10.0982ZM5.51912 6.59375H2.59472C2.32999 6.59375 2.11536 6.80838 2.11536 7.07312V10.5776C2.11536 10.8423 2.32999 11.0569 2.59472 11.0569H5.51912C5.78386 11.0569 5.99849 10.8423 5.99849 10.5776V7.07312C5.99849 6.80835 5.78386 6.59375 5.51912 6.59375ZM5.03975 10.0982H3.07409V7.55248H5.03975V10.0982Z" fill="#2D2D2D"/>
</svg>
