<svg width="267" height="37" viewBox="0 0 267 37" fill="none" xmlns="http://www.w3.org/2000/svg">
<path d="M0 23.8623L1.4221 23.079C2.16345 24.1281 3.84199 24.8322 5.57648 24.8322C7.72128 24.8322 9.46975 23.9649 9.46975 22.7526C9.46975 21.3725 7.12446 20.7104 5.03095 20.1183C3.02137 19.5308 0.773994 18.7941 0.773994 16.8964C0.773994 14.9987 3.04002 13.6 5.91685 13.6C8.34606 13.6 10.0013 14.5977 10.6121 15.81L9.22263 16.5094C8.69576 15.5862 7.37158 14.9614 5.8982 14.9614C4.1404 14.9614 2.63438 15.8287 2.63438 16.9244C2.63438 18.1134 4.43414 18.547 6.5463 19.1531C9.00349 19.8991 11.3301 20.7524 11.3301 22.7247C11.3301 24.8415 8.71907 26.217 5.56715 26.217C2.87217 26.217 0.778655 25.1679 0 23.8577M28.3113 13.7771H30.1624V26.0491H28.3113V13.7771ZM54.4919 13.586H54.2867L46.7146 26.0491H48.7149L49.9132 24.0302H58.856L60.0543 26.0491H62.0686L54.4872 13.586H54.4919ZM50.6405 22.8273L54.3986 16.5141L58.1473 22.8273H50.6359H50.6405ZM52.2072 12.1312H50.6732L53.8531 9.90717H54.9208L58.1194 12.1312H56.576L54.394 10.6299L52.2072 12.1312ZM91.788 13.7445V26.2403H91.6948L80.4672 16.8964V26.0631H78.6162V13.586H78.7187L89.937 22.9205V13.7445H91.788ZM108.942 19.9178C108.942 16.4674 112.76 13.6 117.353 13.6C119.456 13.6139 121.498 14.3367 122.981 15.4557L121.904 16.5421C120.724 15.6375 119.078 15.0034 117.278 15.0034C113.987 15.0034 110.807 17.1342 110.807 19.9131C110.807 22.692 113.959 24.8089 117.311 24.8089C119.162 24.8089 120.733 24.1561 121.913 23.2842L122.981 24.3939C121.619 25.4057 119.782 26.1983 117.362 26.1983C112.812 26.1983 108.937 23.3914 108.937 19.9085M151.777 13.7631V26.0351H149.935V20.5752H141.636V26.0351H139.785V13.7631H141.636V19.2044H149.935V13.7631H151.777ZM171.644 15.1246V19.0086H178.382V20.3934H171.644V24.655H179.417V26.0351H169.793V13.7631H179.417V15.1246H171.644ZM195.881 23.8437L197.303 23.0604C198.044 24.1095 199.723 24.8135 201.457 24.8135C203.602 24.8135 205.35 23.9463 205.35 22.734C205.35 21.3539 203 20.6918 200.912 20.0996C198.897 19.5121 196.655 18.7754 196.655 16.8778C196.655 14.9801 198.921 13.5813 201.798 13.5813C204.227 13.5813 205.882 14.5791 206.493 15.7914L205.103 16.4908C204.576 15.5676 203.252 14.9428 201.779 14.9428C200.021 14.9428 198.52 15.81 198.52 16.9057C198.52 18.0947 200.319 18.5283 202.432 19.1345C204.889 19.8805 207.215 20.7337 207.215 22.706C207.215 24.8228 204.604 26.1983 201.452 26.1983C198.762 26.1983 196.669 25.1492 195.885 23.839" fill="#F8F8FC"/>
</svg>
