<svg width="225" height="67" viewBox="0 0 225 67" fill="none" xmlns="http://www.w3.org/2000/svg">
<path d="M138.899 4.54138C138.899 3.8612 138.752 3.19396 138.457 2.55517L138.421 2.475L117.56 9.41896C117.56 9.39568 117.563 9.37241 117.563 9.34913C117.563 8.63793 117.426 7.94741 117.157 7.29568H118.14V8.00948H118.334V7.29568H119.128C119.177 7.78447 119.585 8.16982 120.087 8.16982V7.97585C119.691 7.97585 119.368 7.67844 119.322 7.29827H120.265V7.10431H119.322C119.371 6.72155 119.694 6.42672 120.087 6.42672V6.23275C119.585 6.23275 119.177 6.61551 119.128 7.10689H118.334V6.3931H118.14V7.10689H115.747C116.355 6.48879 116.787 5.72844 117.012 4.90344C117.04 4.90344 117.069 4.9112 117.097 4.9112C117.651 4.9112 118.101 4.4612 118.101 3.90776C118.101 3.35431 117.677 2.93534 117.147 2.90948C117.033 2.05603 116.707 1.25172 116.179 0.553448L116.102 0.449997L116.024 0.553448C115.76 0.902585 115.455 1.20517 115.122 1.46638L114.79 1.13534C115.111 0.894827 115.403 0.605171 115.654 0.274137L115.499 0.157759C114.703 1.21034 113.49 1.81293 112.171 1.81293C110.852 1.81293 109.639 1.21034 108.842 0.157759L108.687 0.274137C108.943 0.610344 109.238 0.902582 109.566 1.14827L109.235 1.47931C108.894 1.2181 108.586 0.907756 108.317 0.556032L108.24 0.452586L108.162 0.556032C107.634 1.25172 107.309 2.05862 107.195 2.91207C106.665 2.93793 106.24 3.37241 106.24 3.91034C106.24 4.44827 106.69 4.91379 107.244 4.91379C107.272 4.91379 107.301 4.90862 107.329 4.90603C107.554 5.73103 107.989 6.49137 108.594 7.10947H106.202V6.39568H106.008V7.10947H105.222C105.172 6.62068 104.764 6.23534 104.262 6.23534V6.42931C104.658 6.42931 104.978 6.72672 105.028 7.10689H104.076V7.30086H105.028C104.978 7.68361 104.655 7.97844 104.262 7.97844V8.17241C104.764 8.17241 105.172 7.78965 105.222 7.29827H106.008V8.01206H106.202V7.29827H107.184C106.915 7.94999 106.778 8.64051 106.778 9.35171C106.778 9.37499 106.781 9.39826 106.781 9.42413L85.9181 2.47758L85.8819 2.55776C85.5896 3.19655 85.4396 3.86379 85.4396 4.54396C85.4396 7.00344 87.3741 9.10602 90.0845 9.91809C90.2396 10.0215 93.462 12.1784 97.1138 12.1784C97.812 12.1784 98.5232 12.1009 99.2319 11.9146C103.442 10.8077 107.05 11.7957 107.42 11.9043C108.172 13.3008 109.522 14.3276 111.126 14.6431C108.294 15.1293 106.116 17.5526 106.013 20.4957L105.408 19.8905L104.603 20.6948L105.408 21.4991L106.01 20.8965C106.01 20.9146 106.01 20.9302 106.01 20.9483H106.005C106 21.0103 105.783 24.4241 106.724 28.6215H106.714C106.719 28.6422 106.729 28.6577 106.737 28.6732C107.51 32.0896 109.052 36.0155 112.101 39.0646L112.171 39.1344L112.24 39.0646C115.235 36.0698 116.777 32.2345 117.563 28.862C117.571 28.8491 117.578 28.8362 117.586 28.8233L117.573 28.8155C118.566 24.5302 118.341 21.0077 118.336 20.9457H118.331C118.331 20.9198 118.331 20.894 118.331 20.8655L118.983 21.5172L119.787 20.7129L118.983 19.9086L118.331 20.5603C118.259 17.5862 116.071 15.1293 113.215 14.6379C114.811 14.3224 116.159 13.3034 116.911 11.9146L116.932 11.9095C116.968 11.8965 120.728 10.7483 125.153 11.9095C125.862 12.0957 126.576 12.1733 127.271 12.1733C130.99 12.1733 134.27 9.93361 134.309 9.90775L134.301 9.89741C136.983 9.07241 138.894 6.98275 138.894 4.53879M116.836 11.6172L114.126 8.94827C114.201 8.86292 114.271 8.77758 114.335 8.68448L114.299 8.7362L115.859 9.82499L115.97 9.66464L114.41 8.57585L114.351 8.6612C114.415 8.56292 114.472 8.46206 114.524 8.35603L117.348 9.61292C117.312 10.3293 117.131 11.0069 116.834 11.6198M116.805 30.8534C116.322 32.0767 115.59 33.5095 114.586 34.3732C113.076 35.6741 112.471 37.6086 112.261 38.5034V33.5327L113.922 30.7396C115.39 30.5017 116.609 29.9715 117.258 29.2655C117.126 29.7853 116.978 30.3155 116.808 30.8508M107.053 29.1802C107.665 29.9095 108.878 30.4681 110.368 30.7215L112.07 33.5845V38.5293C111.868 37.6474 111.265 35.6819 109.737 34.3655C108.757 33.5224 108.035 32.1362 107.552 30.9336C107.36 30.3414 107.195 29.7543 107.053 29.1776M110.616 30.7603C111.079 30.8276 111.568 30.8664 112.07 30.8715V33.2043L110.616 30.7603ZM112.264 33.15V30.8741C112.75 30.8715 113.223 30.8353 113.676 30.7733L112.264 33.15ZM112.165 26.6767C110.409 26.6767 108.829 25.9138 107.735 24.7034C107.929 22.7664 109.326 21.2405 111.152 20.8293C111.214 21.3233 111.63 21.7086 112.142 21.7086C112.654 21.7086 113.068 21.3258 113.133 20.8345C114.956 21.2586 116.378 22.8207 116.554 24.7448C115.463 25.9319 113.898 26.6767 112.163 26.6767M113.138 20.6379C113.104 20.1569 112.734 19.7715 112.259 19.7146V16.8491H112.065V19.7095C111.571 19.7457 111.18 20.1388 111.144 20.6327C109.812 20.9198 108.7 21.7733 108.069 22.9448C107.694 22.262 107.492 21.4914 107.492 20.7077C107.492 18.1345 109.587 16.0396 112.16 16.0396C114.734 16.0396 116.828 18.1345 116.828 20.7077C116.828 21.5121 116.619 22.2983 116.226 22.9939C115.595 21.812 114.467 20.9353 113.138 20.6379ZM107.301 20.7077C107.301 21.5689 107.531 22.4146 107.965 23.1543C107.888 23.3198 107.821 23.4905 107.761 23.6664C107.169 22.7896 106.853 21.7707 106.853 20.7077C106.853 19.0836 107.588 17.6302 108.741 16.6552V17.2603C107.854 18.1422 107.303 19.3603 107.303 20.7077M116.334 23.2034C116.787 22.4508 117.028 21.5896 117.028 20.7077C117.028 19.3603 116.477 18.1396 115.587 17.2577L115.577 16.6422C116.738 17.6172 117.478 19.0758 117.478 20.7077C117.478 21.7914 117.152 22.8258 116.539 23.7129C116.482 23.5396 116.415 23.3689 116.337 23.2034M111.408 11.5914L111.723 9.78878L111.659 9.77586C111.793 9.80172 111.93 9.81723 112.072 9.8224V14.5396C111.118 14.5215 110.226 14.2448 109.463 13.7767L111.227 9.64913C111.359 9.70085 111.493 9.74223 111.635 9.77068L111.534 9.75258L111.219 11.5552L111.41 11.5888L111.408 11.5914ZM112.264 9.8224C112.357 9.81982 112.447 9.80947 112.538 9.79913L112.962 11.5991L113.151 11.5552L112.732 9.7681C112.838 9.74482 112.939 9.71379 113.04 9.68017L114.692 13.8931C113.971 14.294 113.146 14.5293 112.266 14.5448V9.82757L112.264 9.8224ZM106.98 9.61033L109.804 8.35344C109.856 8.45947 109.913 8.56292 109.978 8.6612L109.918 8.57585L108.372 9.66464L108.483 9.8224L110.027 8.73361L109.993 8.68448C110.063 8.78534 110.14 8.88102 110.223 8.97154L107.508 11.6483C107.2 11.0276 107.014 10.3396 106.978 9.61033M109.727 7.03189C109.773 5.72844 110.849 4.68103 112.165 4.68103C113.482 4.68103 114.553 5.72327 114.602 7.03189H109.727ZM117.364 9.34654C117.364 9.36465 117.364 9.38275 117.361 9.40344L114.607 8.17758C114.718 7.90344 114.78 7.60603 114.793 7.29568H117.028L116.958 7.32413C117.229 7.96551 117.366 8.64569 117.366 9.34913M107.515 4.86206C107.934 4.74051 108.242 4.36034 108.242 3.90258C108.242 3.39827 107.867 2.98448 107.384 2.91465C107.49 2.14137 107.777 1.40948 108.237 0.768103C109.197 1.97327 110.622 2.6612 112.168 2.6612C113.715 2.6612 115.14 1.97327 116.099 0.768103C116.559 1.40948 116.847 2.13879 116.953 2.91465C116.466 2.98448 116.094 3.39827 116.094 3.90258C116.094 4.36034 116.402 4.74051 116.821 4.86206C116.585 5.71034 116.128 6.48879 115.476 7.10172H114.801C114.79 5.65861 113.614 4.48965 112.168 4.48965C110.722 4.48965 109.556 5.65344 109.538 7.10172H108.86C108.209 6.49137 107.751 5.71034 107.515 4.86206ZM107.28 7.29568H109.54C109.551 7.60603 109.615 7.90344 109.727 8.17758L106.972 9.40344C106.972 9.38534 106.97 9.36724 106.97 9.34913C106.97 8.65086 107.107 7.97327 107.376 7.33448L107.283 7.29568H107.28ZM99.1801 11.7233C95.6474 12.6517 92.0345 10.8491 90.7103 10.0784C91.3026 10.2077 91.9233 10.2776 92.5646 10.2776C95.2931 10.2776 97.8043 9.00775 98.9888 7.03448L106.786 9.63103C106.822 10.3578 107.003 11.0457 107.303 11.669C106.458 11.4465 103.072 10.7017 99.1776 11.7233M107.598 11.8345L110.36 9.11379C110.461 9.20948 110.57 9.29999 110.686 9.37758L110.601 9.32068L109.548 10.9138L109.709 11.0198L110.764 9.42672L110.704 9.38792C110.813 9.46034 110.927 9.5224 111.043 9.57671L109.29 13.6784C108.586 13.2103 108.004 12.5767 107.598 11.8345ZM105.403 21.2224L104.872 20.6922L105.403 20.1621L105.933 20.6922L105.403 21.2224ZM106.197 20.6819C106.207 18.675 107.213 16.9034 108.744 15.8276V16.4095C107.477 17.4181 106.662 18.9724 106.662 20.7155C106.662 21.8689 107.019 22.9733 107.689 23.9095C107.634 24.106 107.596 24.3103 107.567 24.5172C106.711 23.4827 106.197 22.1586 106.197 20.7155V20.7052L106.207 20.6948L106.197 20.6845V20.6819ZM112.067 26.8758V30.6853C109.546 30.6595 107.407 29.7957 106.913 28.606C106.303 25.8931 106.178 23.5034 106.168 22.1457C106.809 24.825 109.202 26.8293 112.065 26.8758M117.372 28.7845C116.735 29.8965 114.656 30.6698 112.259 30.6879V26.8784C115.122 26.8345 117.516 24.8302 118.155 22.1483C118.145 23.5345 118.018 25.9991 117.372 28.7845ZM118.975 20.1853L119.505 20.7155L118.975 21.2457L118.445 20.7155L118.975 20.1853ZM118.132 20.7155C118.132 22.1793 117.602 23.5215 116.725 24.5612C116.699 24.3543 116.66 24.1526 116.609 23.956C117.302 23.0095 117.669 21.8896 117.669 20.7155C117.669 18.9646 116.847 17.4052 115.569 16.3965L115.559 15.8095C117.113 16.8879 118.134 18.6853 118.134 20.7155M114.858 13.7922L113.218 9.61292C113.363 9.54827 113.503 9.47327 113.632 9.38534L113.567 9.42672L114.62 11.0198L114.783 10.9138L113.73 9.32068L113.64 9.38017C113.766 9.29482 113.883 9.19655 113.991 9.09051L116.746 11.8034C116.306 12.6233 115.649 13.306 114.855 13.7896M125.197 11.7233C121.215 10.6759 117.765 11.4827 117.017 11.6819C117.32 11.0534 117.503 10.3603 117.542 9.62844L125.337 7.03448C126.521 9.00775 129.033 10.2776 131.761 10.2776C132.434 10.2776 133.083 10.2 133.701 10.0603C132.405 10.8207 128.761 12.6595 125.2 11.7258M112.97 0.80431L112.165 0L111.361 0.80431L112.165 1.60862L112.97 0.80431ZM112.165 0.274137L112.696 0.80431L112.165 1.33448L111.635 0.80431L112.165 0.274137Z" fill="#2D2D2D"/>
<path d="M0 64.4255L1.53961 63.5775C2.34223 64.7132 4.15947 65.4755 6.03729 65.4755C8.35932 65.4755 10.2523 64.5366 10.2523 63.2241C10.2523 61.7299 7.71319 61.0131 5.44669 60.372C3.27104 59.736 0.837953 58.9384 0.837953 56.8839C0.837953 54.8295 3.29123 53.3151 6.40578 53.3151C9.03574 53.3151 10.8277 54.3953 11.489 55.7078L9.98474 56.465C9.41433 55.4655 7.98073 54.7891 6.3856 54.7891C4.48254 54.7891 2.85207 55.728 2.85207 56.9142C2.85207 58.2014 4.80055 58.6709 7.08725 59.3271C9.74749 60.1348 12.2664 61.0586 12.2664 63.1938C12.2664 65.4856 9.43957 66.9747 6.02719 66.9747C3.10951 66.9747 0.842999 65.8389 0 64.4205M30.6508 53.5069H32.6549V66.793H30.6508V53.5069ZM58.9948 53.2999H58.7727L50.5749 66.793H52.7404L54.0377 64.6072H63.7196L65.0169 66.793H67.1976L58.9897 53.2999H58.9948ZM54.8252 63.3049L58.8938 56.47L62.9523 63.3049H54.8202H54.8252ZM56.5213 51.725H54.8606L58.3032 49.3171H59.4592L62.9221 51.725H61.2512L58.8888 50.0996L56.5213 51.725ZM99.3729 53.4716V66.9999H99.272L87.1166 56.8839V66.8081H85.1126V53.2999H85.2237L97.3689 63.4058V53.4716H99.3729ZM117.944 60.155C117.944 56.4195 122.078 53.3151 127.051 53.3151C129.327 53.3302 131.538 54.1127 133.143 55.3242L131.977 56.5003C130.7 55.521 128.918 54.8345 126.97 54.8345C123.406 54.8345 119.963 57.1414 119.963 60.1499C119.963 63.1585 123.376 65.4502 127.005 65.4502C129.009 65.4502 130.71 64.7435 131.987 63.7996L133.143 65.001C131.669 66.0964 129.68 66.9545 127.061 66.9545C122.134 66.9545 117.939 63.9157 117.939 60.1449M164.319 53.4918V66.7778H162.325V60.8667H153.34V66.7778H151.336V53.4918H153.34V59.3826H162.325V53.4918H164.319ZM185.828 54.9657V59.1706H193.122V60.6699H185.828V65.2836H194.243V66.7778H183.824V53.4918H194.243V54.9657H185.828ZM212.067 64.4053L213.607 63.5573C214.409 64.693 216.227 65.4553 218.105 65.4553C220.427 65.4553 222.32 64.5164 222.32 63.2039C222.32 61.7097 219.775 60.9929 217.514 60.3519C215.333 59.7158 212.905 58.9182 212.905 56.8638C212.905 54.8093 215.358 53.2949 218.473 53.2949C221.103 53.2949 222.895 54.3751 223.556 55.6876L222.052 56.4448C221.482 55.4453 220.048 54.7689 218.453 54.7689C216.55 54.7689 214.924 55.7078 214.924 56.894C214.924 58.1813 216.873 58.6507 219.16 59.3069C221.82 60.1146 224.339 61.0384 224.339 63.1736C224.339 65.4654 221.512 66.9545 218.099 66.9545C215.187 66.9545 212.92 65.8187 212.072 64.4003" fill="#2D2D2D"/>
</svg>
